<svg xmlns="http://www.w3.org/2000/svg" viewBox="0 0 188.1 85.94"><defs><style>.cls-1{fill:#d68000;}</style></defs><title>logo_full_orange</title><g id="Warstwa_2" data-name="Warstwa 2"><g id="Warstwa_2-2" data-name="Warstwa 2"><path class="cls-1" d="M66,12.31A11.46,11.46,0,0,0,55.3,11.23,11.45,11.45,0,0,0,49.72,2c-6.06-3.83-12.91-2-17,4.52L.37,57.33a2.3,2.3,0,0,0,.72,3.21,2.29,2.29,0,0,0,3.21-.73L36.61,9c2.77-4.38,6.86-5.6,10.69-3.18s4.47,6.63,1.7,11L23.47,57.33a2.32,2.32,0,1,0,3.93,2.48L52.94,19.32c2.77-4.38,6.86-5.6,10.68-3.18s4.48,6.64,1.71,11L46.24,57.33a2.33,2.33,0,1,0,3.94,2.48L69.26,29.64C73.4,23.11,72.1,16.14,66,12.31Z"/><path class="cls-1" d="M99.15,48.94a2.45,2.45,0,0,0-1.71.75l-.07.07-.06.08A13,13,0,0,1,86.92,54.9,13.43,13.43,0,0,1,73.57,41.11,13.43,13.43,0,0,1,86.92,27.32a12.92,12.92,0,0,1,7.47,2.31L85.27,40.25a2.39,2.39,0,0,0-.62,1.57,2.27,2.27,0,0,0,2.27,2.27,2.35,2.35,0,0,0,1.7-.75l0-.05L99.07,31.1a2.64,2.64,0,0,0,.77-1.78A2.55,2.55,0,0,0,99,27.49a17.86,17.86,0,0,0-12.11-4.7,18.32,18.32,0,0,0,0,36.64,18,18,0,0,0,13.87-6.53,2.59,2.59,0,0,0,.68-1.69A2.27,2.27,0,0,0,99.15,48.94Z"/><path class="cls-1" d="M120.72,22.79c-8.86,0-14.81,6.43-14.81,16v18a2.33,2.33,0,0,0,4.66,0v-18c0-7.08,3.89-11.47,10.15-11.47s10.15,4.39,10.15,11.47v18a2.33,2.33,0,0,0,4.66,0v-18C135.53,29.22,129.58,22.79,120.72,22.79Z"/><path class="cls-1" d="M168.82,23.1a2.31,2.31,0,0,0-2.33,2.33v18c0,7.18-3.79,11.47-10.15,11.47s-10.15-4.4-10.15-11.47v-18a2.33,2.33,0,1,0-4.66,0v18c0,9.57,5.95,16,14.81,16s14.81-6.43,14.81-16v-18A2.31,2.31,0,0,0,168.82,23.1Z"/><path class="cls-1" d="M179.48,23.1a2.31,2.31,0,0,0-2.33,2.33V56.79a2.33,2.33,0,0,0,4.66,0V25.43A2.31,2.31,0,0,0,179.48,23.1Z"/><path class="cls-1" d="M107.46,82.35V73.91h-1.55v-.45h1.55V72a2.83,2.83,0,0,1,.61-2,2.17,2.17,0,0,1,1.71-.69,4.89,4.89,0,0,1,.54,0,3.82,3.82,0,0,1,.51.11l-.06.43a3.65,3.65,0,0,0-.47-.1,3.49,3.49,0,0,0-.51,0,1.73,1.73,0,0,0-1.39.59,2.4,2.4,0,0,0-.5,1.61v1.46h2.35v.45H107.9v8.44Z"/><path class="cls-1" d="M111.38,77.73a4.67,4.67,0,0,1,1.08-3.19,3.8,3.8,0,0,1,5.62,0,4.67,4.67,0,0,1,1.08,3.19v.35a4.68,4.68,0,0,1-1.08,3.2,3.79,3.79,0,0,1-5.61,0,4.64,4.64,0,0,1-1.09-3.2Zm.45.35a4.41,4.41,0,0,0,.93,2.84,3.1,3.1,0,0,0,2.53,1.16,3,3,0,0,0,2.49-1.17,4.33,4.33,0,0,0,.94-2.83v-.35a4.35,4.35,0,0,0-.94-2.81,3.26,3.26,0,0,0-5,0,4.4,4.4,0,0,0-.93,2.81Z"/><path class="cls-1" d="M120.59,77.73a4.67,4.67,0,0,1,1.08-3.19,3.8,3.8,0,0,1,5.62,0,4.67,4.67,0,0,1,1.08,3.19v.35a4.68,4.68,0,0,1-1.08,3.2,3.79,3.79,0,0,1-5.61,0,4.68,4.68,0,0,1-1.09-3.2Zm.45.35a4.41,4.41,0,0,0,.93,2.84,3.1,3.1,0,0,0,2.53,1.16A3,3,0,0,0,127,80.91a4.33,4.33,0,0,0,.94-2.83v-.35a4.35,4.35,0,0,0-.94-2.81,3.26,3.26,0,0,0-5,0,4.4,4.4,0,0,0-.93,2.81Z"/><path class="cls-1" d="M130.09,77.9a5.7,5.7,0,0,1,.89-3.36,2.85,2.85,0,0,1,2.46-1.24,3.4,3.4,0,0,1,1.8.46A3.36,3.36,0,0,1,136.45,75v-5.5h.44v6.69a0,0,0,0,0,0,0v3.62s0,0,0,0h0v2.46h-.42l0-1.37a3.14,3.14,0,0,1-1.21,1.13,3.75,3.75,0,0,1-1.81.41,2.88,2.88,0,0,1-2.46-1.2,5.42,5.42,0,0,1-.88-3.25Zm.46.17a5.17,5.17,0,0,0,.73,2.93,2.41,2.41,0,0,0,2.14,1.08,3.32,3.32,0,0,0,1.92-.52,3,3,0,0,0,1.11-1.39V76a3.65,3.65,0,0,0-1-1.58,2.82,2.82,0,0,0-2-.64,2.4,2.4,0,0,0-2.15,1.15,5.54,5.54,0,0,0-.74,3Z"/><path class="cls-1" d="M143.33,77.9a5.62,5.62,0,0,1,.89-3.36,2.85,2.85,0,0,1,2.46-1.24,3.31,3.31,0,0,1,1.8.47,3.39,3.39,0,0,1,1.21,1.28l.06-1.59h.38v2.76s0,0,0,0v3.62a0,0,0,0,0,0,0h0V82.4a3.65,3.65,0,0,1-.89,2.62,3.29,3.29,0,0,1-2.47.92,7.16,7.16,0,0,1-1.35-.13,5.4,5.4,0,0,1-1.23-.38l.13-.44a7.54,7.54,0,0,0,1.16.39,6.05,6.05,0,0,0,1.27.13,2.87,2.87,0,0,0,2.19-.8,3.32,3.32,0,0,0,.74-2.31V81a3.19,3.19,0,0,1-1.22,1.11,3.68,3.68,0,0,1-1.8.41,2.88,2.88,0,0,1-2.45-1.2,5.36,5.36,0,0,1-.88-3.25Zm.45.17a5.17,5.17,0,0,0,.73,2.93,2.43,2.43,0,0,0,2.15,1.08,3.34,3.34,0,0,0,1.9-.51,3,3,0,0,0,1.12-1.38V75.93a3.8,3.8,0,0,0-1-1.56,2.86,2.86,0,0,0-2-.63,2.41,2.41,0,0,0-2.15,1.15,5.54,5.54,0,0,0-.74,3Z"/><path class="cls-1" d="M158.91,80.79a3.13,3.13,0,0,1-1.19,1.28,3.69,3.69,0,0,1-1.88.45,2.6,2.6,0,0,1-2.15-1,4.88,4.88,0,0,1-.77-3V73.46h.44v5.09a4.34,4.34,0,0,0,.67,2.67,2.16,2.16,0,0,0,1.8.86,3,3,0,0,0,2.09-.66,3.07,3.07,0,0,0,1-1.75V73.46h.45v5.23h0a1.41,1.41,0,0,1,0,.21,1.62,1.62,0,0,0,0,.23v3.22H159Z"/><path class="cls-1" d="M162.71,70.67h-.44V69.53h.44Zm0,11.68h-.44V73.46h.44Z"/><path class="cls-1" d="M165.22,77.9a5.7,5.7,0,0,1,.88-3.36,2.87,2.87,0,0,1,2.47-1.24,3.34,3.34,0,0,1,1.79.46A3.46,3.46,0,0,1,171.58,75v-5.5H172v6.69s0,0,0,0v3.62a0,0,0,0,0,0,0h0v2.46h-.43V81a3.24,3.24,0,0,1-1.22,1.13,3.72,3.72,0,0,1-1.81.41,2.88,2.88,0,0,1-2.45-1.2,5.36,5.36,0,0,1-.88-3.25Zm.46.17A5.25,5.25,0,0,0,166.4,81a2.42,2.42,0,0,0,2.14,1.08,3.33,3.33,0,0,0,1.93-.52,3,3,0,0,0,1.11-1.39V76a3.74,3.74,0,0,0-1-1.58,2.86,2.86,0,0,0-2-.64,2.41,2.41,0,0,0-2.15,1.15,5.55,5.55,0,0,0-.73,3Z"/><path class="cls-1" d="M178,82.52a3.42,3.42,0,0,1-2.65-1.21,4.44,4.44,0,0,1-1.08-3.07v-.52a4.72,4.72,0,0,1,1.07-3.18A3.42,3.42,0,0,1,178,73.3a3,3,0,0,1,2.36,1,3.81,3.81,0,0,1,.88,2.66v.68h-6.56v.63a4.06,4.06,0,0,0,.92,2.73A2.92,2.92,0,0,0,178,82.08a4,4,0,0,0,1.53-.3,3.33,3.33,0,0,0,1.2-.78l.24.34a3.51,3.51,0,0,1-1.21.85A4.29,4.29,0,0,1,178,82.52Zm0-8.78a2.93,2.93,0,0,0-2.26,1,3.91,3.91,0,0,0-1,2.42l0,0h6V76.9a3.41,3.41,0,0,0-.75-2.27A2.54,2.54,0,0,0,178,73.74Z"/><circle class="cls-1" cx="179.48" cy="8.86" r="8.62"/></g></g></svg>